<svg width="112" height="34" viewBox="0 0 112 34" fill="none" xmlns="http://www.w3.org/2000/svg">
<path d="M5.78006 4.67212C6.66027 4.67212 7.33345 4.91431 7.79959 5.39868C8.26834 5.88045 8.50272 6.57707 8.50272 7.48853C8.50272 8.39998 8.26574 9.10311 7.79178 9.5979C7.32042 10.0901 6.64985 10.3362 5.78006 10.3362H3.94803V4.67212H5.78006ZM5.78006 9.65649C6.40506 9.65649 6.88162 9.4729 7.20975 9.10571C7.53787 8.73592 7.70193 8.19686 7.70193 7.48853C7.70193 6.79061 7.53917 6.26066 7.21365 5.89868C6.88813 5.5341 6.41027 5.35181 5.78006 5.35181H4.71756V9.65649H5.78006ZM11.3104 6.14478C11.9276 6.14478 12.4068 6.33228 12.7479 6.70728C13.089 7.07967 13.2596 7.60181 13.2596 8.27368C13.2596 8.94556 13.089 9.46769 12.7479 9.84009C12.4068 10.2125 11.9276 10.3987 11.3104 10.3987C10.6906 10.3987 10.2101 10.2125 9.869 9.84009C9.52785 9.46769 9.35728 8.94556 9.35728 8.27368C9.35728 7.60181 9.52785 7.07967 9.869 6.70728C10.2101 6.33228 10.6906 6.14478 11.3104 6.14478ZM11.3104 6.80884C10.925 6.80884 10.6307 6.93384 10.4276 7.18384C10.2271 7.43384 10.1268 7.79712 10.1268 8.27368C10.1268 8.74764 10.2271 9.10962 10.4276 9.35962C10.6307 9.60962 10.925 9.73462 11.3104 9.73462C11.6932 9.73462 11.9862 9.60962 12.1893 9.35962C12.3924 9.10962 12.494 8.74764 12.494 8.27368C12.494 7.79972 12.3924 7.43774 12.1893 7.18774C11.9862 6.93514 11.6932 6.80884 11.3104 6.80884ZM17.2001 8.39087C17.1637 8.25806 17.1077 8.02368 17.0322 7.68774C17.0165 7.62785 16.9996 7.56014 16.9814 7.48462C16.9657 7.40649 16.9449 7.32186 16.9189 7.23071C16.8824 7.35311 16.8394 7.52629 16.79 7.75024C16.7197 8.05493 16.6663 8.26847 16.6298 8.39087L16.079 10.3362H15.04L13.8798 6.2229H14.622L15.1845 8.26587L15.5595 9.60962C15.7418 9.01326 15.8746 8.56535 15.9579 8.26587L16.5595 6.2229H17.2704L17.872 8.26587C17.9579 8.56535 18.0907 9.01326 18.2704 9.60962L18.6454 8.26587L19.2079 6.2229H19.9501L18.79 10.3362H17.7509L17.2001 8.39087ZM21.5742 6.80103C21.7721 6.58228 21.9896 6.41951 22.2266 6.31274C22.4635 6.20597 22.7292 6.15259 23.0234 6.15259C23.4609 6.15259 23.7956 6.27889 24.0273 6.53149C24.2591 6.7841 24.375 7.15129 24.375 7.63306V10.3362H23.6211V7.68774C23.6211 7.38306 23.5586 7.1617 23.4336 7.02368C23.3086 6.88566 23.1081 6.81665 22.832 6.81665C22.5872 6.81665 22.3581 6.87134 22.1445 6.98071C21.931 7.09009 21.7591 7.24113 21.6289 7.43384V10.3362H20.8789V6.2229H21.4883L21.5742 6.80103ZM25.7335 4.33618H26.4835V10.3362H25.7335V4.33618ZM29.5724 6.14478C30.1896 6.14478 30.6688 6.33228 31.0099 6.70728C31.351 7.07967 31.5216 7.60181 31.5216 8.27368C31.5216 8.94556 31.351 9.46769 31.0099 9.84009C30.6688 10.2125 30.1896 10.3987 29.5724 10.3987C28.9526 10.3987 28.4721 10.2125 28.131 9.84009C27.7899 9.46769 27.6193 8.94556 27.6193 8.27368C27.6193 7.60181 27.7899 7.07967 28.131 6.70728C28.4721 6.33228 28.9526 6.14478 29.5724 6.14478ZM29.5724 6.80884C29.187 6.80884 28.8927 6.93384 28.6896 7.18384C28.4891 7.43384 28.3888 7.79712 28.3888 8.27368C28.3888 8.74764 28.4891 9.10962 28.6896 9.35962C28.8927 9.60962 29.187 9.73462 29.5724 9.73462C29.9552 9.73462 30.2482 9.60962 30.4513 9.35962C30.6544 9.10962 30.756 8.74764 30.756 8.27368C30.756 7.79972 30.6544 7.43774 30.4513 7.18774C30.2482 6.93514 29.9552 6.80884 29.5724 6.80884ZM34.0363 6.1604C34.5494 6.1604 34.9439 6.29582 35.2199 6.56665C35.4986 6.83488 35.6379 7.21899 35.6379 7.71899V10.3362H35.0598L34.9504 9.85571C34.5494 10.2281 34.0988 10.4143 33.5988 10.4143C33.1874 10.4143 32.8606 10.3036 32.6184 10.0823C32.3762 9.86092 32.2551 9.56405 32.2551 9.19165C32.2551 8.75936 32.4322 8.42212 32.7863 8.17993C33.1405 7.93774 33.6379 7.81665 34.2785 7.81665H34.884V7.70337C34.8632 7.11743 34.5624 6.82446 33.9817 6.82446C33.8046 6.82446 33.6054 6.85181 33.384 6.90649C33.1626 6.95858 32.94 7.03019 32.716 7.12134L32.509 6.51196C32.7486 6.39998 33.0012 6.31405 33.2668 6.25415C33.535 6.19165 33.7915 6.1604 34.0363 6.1604ZM34.3254 8.39087C33.9087 8.39087 33.5845 8.45988 33.3527 8.5979C33.121 8.73332 33.0051 8.92342 33.0051 9.16821C33.0051 9.35571 33.0689 9.50024 33.1965 9.60181C33.3241 9.70076 33.5025 9.75024 33.7317 9.75024C33.9504 9.75024 34.1639 9.70467 34.3723 9.61353C34.5806 9.51978 34.7512 9.39478 34.884 9.23853V8.39087H34.3254ZM39.6956 9.81665C39.5185 10.0198 39.3297 10.1682 39.1292 10.262C38.9313 10.3531 38.7125 10.3987 38.4729 10.3987C37.8974 10.3987 37.4521 10.2203 37.137 9.86353C36.8219 9.50675 36.6643 9.00024 36.6643 8.34399C36.6643 7.6617 36.8505 7.12655 37.2229 6.73853C37.5979 6.3479 38.1162 6.15259 38.7776 6.15259C39.0172 6.15259 39.3076 6.19035 39.6487 6.26587V4.33618H40.3987V10.3284H39.8011L39.6956 9.81665ZM38.5198 9.73462C38.7828 9.73462 39.012 9.66431 39.2073 9.52368C39.4052 9.38306 39.5524 9.18514 39.6487 8.92993V6.93774C39.4352 6.88566 39.275 6.85311 39.1682 6.84009C39.0615 6.82446 38.9339 6.81665 38.7854 6.81665C38.3584 6.81665 38.0263 6.95207 37.7893 7.2229C37.5524 7.49113 37.4339 7.86483 37.4339 8.34399C37.4339 8.7867 37.5276 9.12915 37.7151 9.37134C37.9052 9.61353 38.1735 9.73462 38.5198 9.73462ZM45.5219 6.14478C46.1391 6.14478 46.6183 6.33228 46.9594 6.70728C47.3005 7.07967 47.4711 7.60181 47.4711 8.27368C47.4711 8.94556 47.3005 9.46769 46.9594 9.84009C46.6183 10.2125 46.1391 10.3987 45.5219 10.3987C44.9021 10.3987 44.4216 10.2125 44.0805 9.84009C43.7394 9.46769 43.5688 8.94556 43.5688 8.27368C43.5688 7.60181 43.7394 7.07967 44.0805 6.70728C44.4216 6.33228 44.9021 6.14478 45.5219 6.14478ZM45.5219 6.80884C45.1365 6.80884 44.8422 6.93384 44.6391 7.18384C44.4386 7.43384 44.3383 7.79712 44.3383 8.27368C44.3383 8.74764 44.4386 9.10962 44.6391 9.35962C44.8422 9.60962 45.1365 9.73462 45.5219 9.73462C45.9047 9.73462 46.1977 9.60962 46.4008 9.35962C46.6039 9.10962 46.7055 8.74764 46.7055 8.27368C46.7055 7.79972 46.6039 7.43774 46.4008 7.18774C46.1977 6.93514 45.9047 6.80884 45.5219 6.80884ZM49.2983 6.80103C49.4963 6.58228 49.7137 6.41951 49.9507 6.31274C50.1877 6.20597 50.4533 6.15259 50.7476 6.15259C51.1851 6.15259 51.5197 6.27889 51.7515 6.53149C51.9832 6.7841 52.0991 7.15129 52.0991 7.63306V10.3362H51.3452V7.68774C51.3452 7.38306 51.2827 7.1617 51.1577 7.02368C51.0327 6.88566 50.8322 6.81665 50.5562 6.81665C50.3114 6.81665 50.0822 6.87134 49.8687 6.98071C49.6551 7.09009 49.4832 7.24113 49.353 7.43384V10.3362H48.603V6.2229H49.2124L49.2983 6.80103ZM57.8317 10.1995C57.5218 10.3219 57.234 10.3831 56.9684 10.3831C56.5726 10.3831 56.2705 10.2815 56.0622 10.0784C55.8564 9.87264 55.7536 9.57186 55.7536 9.17603V6.87134H55.0348V6.2229H55.7926L55.9528 5.04712H56.5075V6.2229H57.7614V6.87134H56.5075V9.05493C56.5075 9.28931 56.553 9.45728 56.6442 9.55884C56.7379 9.6604 56.8916 9.71118 57.1051 9.71118C57.2926 9.71118 57.4879 9.67733 57.6911 9.60962L57.8317 10.1995ZM59.5573 6.75024C59.9376 6.35181 60.4024 6.15259 60.9519 6.15259C61.3894 6.15259 61.724 6.27889 61.9558 6.53149C62.1876 6.7841 62.3034 7.15129 62.3034 7.63306V10.3362H61.5495V7.68774C61.5495 7.38306 61.487 7.1617 61.362 7.02368C61.237 6.88566 61.0365 6.81665 60.7605 6.81665C60.5157 6.81665 60.2865 6.87134 60.073 6.98071C59.8594 7.09009 59.6876 7.24113 59.5573 7.43384V10.3362H58.8073V4.30493H59.5573V6.75024ZM64.1111 8.41431C64.132 8.84139 64.2465 9.16821 64.4549 9.39478C64.6632 9.62134 64.9562 9.73462 65.3338 9.73462C65.5421 9.73462 65.7426 9.71248 65.9353 9.66821C66.1307 9.62394 66.352 9.54842 66.5994 9.44165L66.8377 10.0002C66.5538 10.1383 66.2882 10.2398 66.0408 10.3049C65.7934 10.3674 65.5447 10.3987 65.2947 10.3987C64.6749 10.3987 64.1945 10.2125 63.8533 9.84009C63.5122 9.46769 63.3416 8.94556 63.3416 8.27368C63.3416 7.60181 63.5096 7.08097 63.8455 6.71118C64.1814 6.33879 64.6567 6.15259 65.2713 6.15259C65.8468 6.15259 66.2752 6.32576 66.5564 6.67212C66.8403 7.01847 66.9822 7.54321 66.9822 8.24634V8.41431H64.1111ZM66.2049 7.7854C66.184 7.46509 66.0929 7.2242 65.9314 7.06274C65.7726 6.89868 65.5525 6.81665 65.2713 6.81665C64.6463 6.81665 64.2726 7.13957 64.1502 7.7854H66.2049Z" fill="white"/>
<path d="M6.64334 24.2266L5.72147 27.1406H3.31522L6.9949 15.7969H10.2293L14.0027 27.1406H11.6355L10.6746 24.2266H6.64334ZM8.58084 17.8906L7.19022 22.4219H10.1199L8.69022 17.8906H8.58084ZM20.1962 18.6484C21.3577 18.6484 22.2613 19.0078 22.9072 19.7266C23.553 20.4453 23.8759 21.4661 23.8759 22.7891C23.8759 23.7161 23.691 24.5156 23.3212 25.1875C22.9514 25.8594 22.428 26.375 21.7509 26.7344C21.0738 27.0885 20.2717 27.2656 19.3447 27.2656C18.9072 27.2656 18.4384 27.2083 17.9384 27.0938V30.8047H15.54V18.7578H17.3759L17.7431 19.75C18.0973 19.3646 18.467 19.0859 18.8525 18.9141C19.2431 18.737 19.691 18.6484 20.1962 18.6484ZM19.204 25.6328C19.928 25.6328 20.4827 25.3984 20.8681 24.9297C21.2587 24.4609 21.454 23.7734 21.454 22.8672C21.454 21.1797 20.8681 20.3385 19.6962 20.3438C19.2691 20.3438 18.9019 20.4583 18.5947 20.6875C18.2926 20.9167 18.0738 21.2396 17.9384 21.6562V25.4609C18.2457 25.5339 18.4775 25.5807 18.6337 25.6016C18.79 25.6224 18.9801 25.6328 19.204 25.6328ZM30.4835 18.6484C31.6449 18.6484 32.5486 19.0078 33.1944 19.7266C33.8402 20.4453 34.1632 21.4661 34.1632 22.7891C34.1632 23.7161 33.9783 24.5156 33.6085 25.1875C33.2387 25.8594 32.7152 26.375 32.0382 26.7344C31.3611 27.0885 30.559 27.2656 29.6319 27.2656C29.1944 27.2656 28.7257 27.2083 28.2257 27.0938V30.8047H25.8272V18.7578H27.6632L28.0303 19.75C28.3845 19.3646 28.7543 19.0859 29.1397 18.9141C29.5303 18.737 29.9783 18.6484 30.4835 18.6484ZM29.4913 25.6328C30.2152 25.6328 30.7699 25.3984 31.1553 24.9297C31.546 24.4609 31.7413 23.7734 31.7413 22.8672C31.7413 21.1797 31.1553 20.3385 29.9835 20.3438C29.5564 20.3438 29.1892 20.4583 28.8819 20.6875C28.5798 20.9167 28.3611 21.2396 28.2257 21.6562V25.4609C28.5329 25.5339 28.7647 25.5807 28.921 25.6016C29.0772 25.6224 29.2673 25.6328 29.4913 25.6328ZM43.6908 15.6562C44.6283 15.651 45.683 15.8568 46.8548 16.2734L46.3627 18.1484C45.2741 17.763 44.3887 17.5703 43.7064 17.5703C43.1543 17.5703 42.7194 17.6797 42.4017 17.8984C42.084 18.1172 41.9252 18.4141 41.9252 18.7891C41.9252 19.1953 42.071 19.5182 42.3627 19.7578C42.6595 19.9974 43.1986 20.2188 43.9798 20.4219C45.1309 20.7188 45.9486 21.1302 46.433 21.6562C46.9173 22.1771 47.1595 22.8958 47.1595 23.8125C47.1595 24.9219 46.7845 25.7734 46.0345 26.3672C45.2897 26.9557 44.2246 27.25 42.8392 27.25C41.709 27.25 40.4981 26.9948 39.2064 26.4844L39.7845 24.6641C40.4981 24.9193 41.0814 25.099 41.5345 25.2031C41.9877 25.3021 42.4173 25.3516 42.8236 25.3516C43.4121 25.3516 43.8653 25.2266 44.183 24.9766C44.5059 24.7214 44.6673 24.3698 44.6673 23.9219C44.6673 23.6354 44.5996 23.3958 44.4642 23.2031C44.3288 23.0104 44.0996 22.8385 43.7767 22.6875C43.4538 22.5312 42.9877 22.3776 42.3783 22.2266C41.3627 21.9818 40.6205 21.6016 40.1517 21.0859C39.683 20.5703 39.4486 19.8906 39.4486 19.0469C39.4486 17.9688 39.8184 17.1354 40.558 16.5469C41.3028 15.9531 42.347 15.6562 43.6908 15.6562ZM54.2749 26.8203C53.5509 27.1172 52.8582 27.2656 52.1968 27.2656C50.353 27.2656 49.4312 26.3854 49.4312 24.625V20.4375H48.0483V18.7578H49.5874L50.0483 16.3594H51.814V18.7578H54.103V20.4375H51.814V24.2891C51.814 24.7161 51.8921 25.0208 52.0483 25.2031C52.2098 25.3854 52.4832 25.4766 52.8687 25.4766C53.1968 25.4766 53.5483 25.4115 53.9233 25.2812L54.2749 26.8203ZM59.6168 18.5625C60.997 18.5625 62.0543 18.9401 62.7887 19.6953C63.5231 20.4453 63.8903 21.5234 63.8903 22.9297C63.8903 24.3359 63.5231 25.4193 62.7887 26.1797C62.0543 26.9401 60.997 27.3203 59.6168 27.3203C58.2523 27.3203 57.2002 26.9427 56.4606 26.1875C55.721 25.4271 55.3512 24.3411 55.3512 22.9297C55.3512 21.5234 55.7184 20.4453 56.4528 19.6953C57.1872 18.9401 58.2418 18.5625 59.6168 18.5625ZM59.6168 20.3594C58.3825 20.3542 57.7653 21.2109 57.7653 22.9297C57.7653 24.6484 58.3825 25.5078 59.6168 25.5078C60.8564 25.5078 61.4762 24.6484 61.4762 22.9297C61.4762 21.2109 60.8564 20.3542 59.6168 20.3594ZM67.9822 19.9219C68.5083 19.0573 69.2452 18.625 70.1932 18.625C70.3963 18.625 70.5682 18.638 70.7088 18.6641C70.8546 18.6849 71.0395 18.7266 71.2635 18.7891L70.99 20.8828C70.5421 20.7214 70.1463 20.6432 69.8025 20.6484C69.4275 20.6484 69.1098 20.7161 68.8494 20.8516C68.589 20.9818 68.3702 21.1901 68.1932 21.4766V27.1406H65.7869V18.7578H67.6932L67.9822 19.9219ZM74.2929 23.3984C74.4179 24.8255 75.1523 25.5391 76.496 25.5391C76.9127 25.5391 77.332 25.4922 77.7538 25.3984C78.1757 25.2995 78.6419 25.1432 79.1523 24.9297L79.7304 26.4219C78.4596 27.0104 77.2851 27.3021 76.207 27.2969C74.884 27.2969 73.845 26.9115 73.0898 26.1406C72.3346 25.3698 71.957 24.2995 71.957 22.9297C71.957 21.5651 72.3268 20.5026 73.0663 19.7422C73.8059 18.9766 74.8424 18.5938 76.1757 18.5938C78.6809 18.5938 79.9335 20.013 79.9335 22.8516V23.3984H74.2929ZM77.7304 22.0078C77.6627 20.8411 77.1497 20.2578 76.1913 20.2578C75.6601 20.2578 75.2408 20.4036 74.9335 20.6953C74.6314 20.9818 74.4335 21.4193 74.3398 22.0078H77.7304Z" fill="white"/>
</svg>
