<svg width="36" height="36" viewBox="0 0 36 36" fill="none" xmlns="http://www.w3.org/2000/svg">
<path d="M15.4743 3.40402C16.9952 2.82073 18.6791 2.82073 20.2 3.40402L31.0863 7.57778C31.707 7.81605 32.2406 8.23622 32.617 8.78291C32.9934 9.32961 33.1948 9.97717 33.1947 10.6403V25.1347C33.1948 25.7978 32.9934 26.4453 32.617 26.992C32.2406 27.5387 31.707 27.9589 31.0863 28.1971L20.2 32.3731C18.6791 32.9564 16.9952 32.9564 15.4743 32.3731L4.59021 28.1971C3.96917 27.9592 3.43504 27.5392 3.05825 26.9925C2.68147 26.4458 2.47973 25.798 2.47964 25.1347V10.6403C2.47973 9.97692 2.68147 9.32917 3.05825 8.78244C3.43504 8.23572 3.96917 7.8157 4.59021 7.57778L15.4743 3.40402ZM19.4124 5.44496C18.3985 5.0561 17.2759 5.0561 16.2619 5.44496L13.2255 6.6109L25.4896 11.2396L29.7634 9.41528L19.4124 5.44277V5.44496ZM31.0008 11.2637L18.9341 16.424V30.4853C19.0965 30.4437 19.2545 30.3934 19.4124 30.3321L30.2987 26.1584C30.5056 26.0788 30.6834 25.9386 30.8087 25.7562C30.9341 25.5739 31.001 25.3579 31.0008 25.1368V11.2681V11.2637ZM16.7402 30.4831V16.424L4.67358 11.2659V25.1347C4.67335 25.3557 4.74031 25.5717 4.86564 25.754C4.99097 25.9364 5.16878 26.0766 5.37564 26.1562L16.2619 30.33C16.4199 30.3912 16.5779 30.4415 16.7402 30.4831ZM5.91096 9.41528L17.8372 14.5121L22.5849 12.4821L10.1518 7.78778L5.91096 9.41528Z" fill="#D8191E"/>
</svg>
